<svg width="146" height="35" viewBox="0 0 146 35" fill="none" xmlns="http://www.w3.org/2000/svg">
<path d="M1.66488 23V6.2H10.6409C12.9609 6.2 14.6729 6.616 15.7769 7.448C16.8809 8.264 17.4329 9.312 17.4329 10.592C17.4329 11.44 17.1929 12.2 16.7129 12.872C16.2489 13.528 15.5689 14.048 14.6729 14.432C13.7769 14.816 12.6729 15.008 11.3609 15.008L11.8409 13.712C13.1529 13.712 14.2809 13.896 15.2249 14.264C16.1849 14.632 16.9209 15.168 17.4329 15.872C17.9609 16.56 18.2249 17.392 18.2249 18.368C18.2249 19.824 17.6169 20.96 16.4009 21.776C15.2009 22.592 13.4409 23 11.1209 23H1.66488ZM7.23288 19.04H10.6409C11.2649 19.04 11.7289 18.928 12.0329 18.704C12.3529 18.48 12.5129 18.152 12.5129 17.72C12.5129 17.288 12.3529 16.96 12.0329 16.736C11.7289 16.512 11.2649 16.4 10.6409 16.4H6.84888V12.656H9.87288C10.5129 12.656 10.9769 12.552 11.2649 12.344C11.5689 12.12 11.7209 11.808 11.7209 11.408C11.7209 10.992 11.5689 10.68 11.2649 10.472C10.9769 10.264 10.5129 10.16 9.87288 10.16H7.23288V19.04ZM18.4034 23L25.7474 6.2H31.3154L38.6594 23H32.8034L27.3794 8.888H29.5874L24.1634 23H18.4034ZM22.7714 20.072L24.2114 15.992H31.9394L33.3794 20.072H22.7714ZM39.5633 23V6.2H45.2273V18.608H52.8113V23H39.5633ZM52.7862 23L60.1302 6.2H65.6982L73.0422 23H67.1862L61.7622 8.888H63.9702L58.5462 23H52.7862ZM57.1542 20.072L58.5942 15.992H66.3222L67.7622 20.072H57.1542ZM73.9461 23V6.2H78.6021L87.1461 16.424H84.9861V6.2H90.5061V23H85.8501L77.3061 12.776H79.4661V23H73.9461ZM101.923 23.384C100.579 23.384 99.3312 23.176 98.1792 22.76C97.0432 22.328 96.0512 21.72 95.2032 20.936C94.3712 20.152 93.7232 19.224 93.2592 18.152C92.7952 17.08 92.5632 15.896 92.5632 14.6C92.5632 13.304 92.7952 12.12 93.2592 11.048C93.7232 9.976 94.3712 9.048 95.2032 8.264C96.0512 7.48 97.0432 6.88 98.1792 6.464C99.3312 6.032 100.579 5.816 101.923 5.816C103.571 5.816 105.027 6.104 106.291 6.68C107.571 7.256 108.627 8.088 109.459 9.176L105.883 12.368C105.387 11.744 104.835 11.264 104.227 10.928C103.635 10.576 102.963 10.4 102.211 10.4C101.619 10.4 101.083 10.496 100.603 10.688C100.123 10.88 99.7072 11.16 99.3552 11.528C99.0192 11.896 98.7552 12.344 98.5632 12.872C98.3712 13.384 98.2752 13.96 98.2752 14.6C98.2752 15.24 98.3712 15.824 98.5632 16.352C98.7552 16.864 99.0192 17.304 99.3552 17.672C99.7072 18.04 100.123 18.32 100.603 18.512C101.083 18.704 101.619 18.8 102.211 18.8C102.963 18.8 103.635 18.632 104.227 18.296C104.835 17.944 105.387 17.456 105.883 16.832L109.459 20.024C108.627 21.096 107.571 21.928 106.291 22.52C105.027 23.096 103.571 23.384 101.923 23.384ZM116.279 12.44H123.767V16.52H116.279V12.44ZM116.663 18.728H125.063V23H111.095V6.2H124.751V10.472H116.663V18.728ZM127.243 23V6.2H135.523C137.395 6.2 139.043 6.544 140.467 7.232C141.891 7.904 143.003 8.864 143.803 10.112C144.603 11.36 145.003 12.848 145.003 14.576C145.003 16.32 144.603 17.824 143.803 19.088C143.003 20.336 141.891 21.304 140.467 21.992C139.043 22.664 137.395 23 135.523 23H127.243ZM132.907 18.584H135.283C136.083 18.584 136.779 18.432 137.371 18.128C137.979 17.824 138.451 17.376 138.787 16.784C139.123 16.176 139.291 15.44 139.291 14.576C139.291 13.728 139.123 13.008 138.787 12.416C138.451 11.824 137.979 11.376 137.371 11.072C136.779 10.768 136.083 10.616 135.283 10.616H132.907V18.584Z" fill="black"/>
<path d="M112.993 33V26H114.933L118.493 30.26H117.593V26H119.893V33H117.953L114.393 28.74H115.293V33H112.993ZM123.19 28.6H126.31V30.3H123.19V28.6ZM123.35 31.22H126.85V33H121.03V26H126.72V27.78H123.35V31.22ZM129.431 33L127.191 26H129.621L131.431 31.91H130.211L132.131 26H134.301L136.091 31.91H134.921L136.811 26H139.051L136.811 33H134.281L132.821 28.16H133.501L131.961 33H129.431ZM142.185 33.16C141.598 33.16 141.032 33.0933 140.485 32.96C139.938 32.8267 139.488 32.6533 139.135 32.44L139.895 30.72C140.228 30.9133 140.598 31.07 141.005 31.19C141.418 31.3033 141.818 31.36 142.205 31.36C142.432 31.36 142.608 31.3467 142.735 31.32C142.868 31.2867 142.965 31.2433 143.025 31.19C143.085 31.13 143.115 31.06 143.115 30.98C143.115 30.8533 143.045 30.7533 142.905 30.68C142.765 30.6067 142.578 30.5467 142.345 30.5C142.118 30.4467 141.868 30.3933 141.595 30.34C141.322 30.28 141.045 30.2033 140.765 30.11C140.492 30.0167 140.238 29.8933 140.005 29.74C139.778 29.5867 139.595 29.3867 139.455 29.14C139.315 28.8867 139.245 28.5733 139.245 28.2C139.245 27.7667 139.365 27.3733 139.605 27.02C139.852 26.66 140.215 26.3733 140.695 26.16C141.182 25.9467 141.785 25.84 142.505 25.84C142.978 25.84 143.445 25.89 143.905 25.99C144.365 26.09 144.778 26.2433 145.145 26.45L144.435 28.16C144.088 27.9867 143.752 27.8567 143.425 27.77C143.105 27.6833 142.792 27.64 142.485 27.64C142.258 27.64 142.078 27.66 141.945 27.7C141.812 27.74 141.715 27.7933 141.655 27.86C141.602 27.9267 141.575 28 141.575 28.08C141.575 28.2 141.645 28.2967 141.785 28.37C141.925 28.4367 142.108 28.4933 142.335 28.54C142.568 28.5867 142.822 28.6367 143.095 28.69C143.375 28.7433 143.652 28.8167 143.925 28.91C144.198 29.0033 144.448 29.1267 144.675 29.28C144.908 29.4333 145.095 29.6333 145.235 29.88C145.375 30.1267 145.445 30.4333 145.445 30.8C145.445 31.2267 145.322 31.62 145.075 31.98C144.835 32.3333 144.475 32.62 143.995 32.84C143.515 33.0533 142.912 33.16 142.185 33.16Z" fill="black"/>
<rect x="2" y="26" width="110" height="7" fill="#BFD900"/>
</svg>
